<?xml version="1.0" encoding="utf-8"?>
<!-- Generator: Adobe Illustrator 27.7.0, SVG Export Plug-In . SVG Version: 6.00 Build 0)  -->
<svg version="1.1" id="Layer_1" xmlns="http://www.w3.org/2000/svg" xmlns:xlink="http://www.w3.org/1999/xlink" x="0px" y="0px"
	 viewBox="0 0 658.99 596.01" style="enable-background:new 0 0 658.99 596.01;" xml:space="preserve">
<style type="text/css">
	.st0{fill:#315A9C;}
	.st1{fill:#F7F6FB;}
	.st2{fill:#7B85C3;}
	.st3{fill:#5058A6;}
	.st4{fill:#B5BCF4;}
	.st5{fill:#4D5AAE;}
	.st6{fill:#F6F6FB;}
	.st7{fill:#F6F5FE;}
	.st8{fill:#E1ECFF;}
	.st9{fill:#7B85C4;}
	.st10{fill:#DAF7FD;}
	.st11{fill:#3F49A5;}
	.st12{fill:#977F8C;}
	.st13{fill:#9E7274;}
	.st14{fill:#F76669;}
	.st15{fill:#E77098;}
	.st16{fill:#E7859B;}
	.st17{fill:#F7F5FC;}
	.st18{fill:#FECC98;}
	.st19{fill:#D77850;}
	.st20{fill:#DF855B;}
	.st21{fill:#41565F;}
	.st22{fill:#84A96C;}
	.st23{fill:#BABE66;}
	.st24{fill:#FAFCFE;}
	.st25{fill:#BBDEFB;}
	.st26{fill:#4F69AE;}
	.st27{fill:#97B1F9;}
	.st28{fill:#F8C01C;}
	.st29{fill:#DF9D03;}
	.st30{fill:#FFEA3E;}
	.st31{fill:#60737F;}
	.st32{fill:#202022;}
	.st33{fill:#576D7A;}
	.st34{fill:#FAB750;}
	.st35{fill:#5A6E76;}
	.st36{fill:#826B3E;}
	.st37{fill:#5B6C73;}
	.st38{fill:#93CAEA;}
	.st39{fill:#FD990E;}
	.st40{fill:#8695A0;}
	.st41{fill:#5F8ABE;}
	.st42{fill:#B54749;}
	.st43{fill:#E23A34;}
	.st44{fill:#6493CB;}
	.st45{fill:#596B7A;}
	.st46{fill:#596C77;}
	.st47{fill:#FCB64D;}
	.st48{fill:#FEB74D;}
	.st49{fill:#2195F1;}
	.st50{fill:#566C77;}
	.st51{fill:#566C79;}
	.st52{fill:#78CA05;}
	.st53{fill:#D8F7A7;}
	.st54{fill:#FDFEFE;}
	.st55{fill:#FEFEFE;}
	.st56{fill:#FCFEFF;}
	.st57{fill:#FDFEFF;}
	.st58{fill:#F9FFED;}
	.st59{fill:#E7FCC6;}
	.st60{fill:#8DC14A;}
	.st61{fill:#E9FCCC;}
	.st62{fill:#FEFFFF;}
	.st63{fill:#FDFFFF;}
	.st64{fill:#F8FFEA;}
	.st65{fill:#31599A;}
	.st66{fill:#F9FFEE;}
	.st67{fill:#31599B;}
	.st68{fill:#F7FFE6;}
	.st69{fill:#325999;}
	.st70{fill:#32599A;}
	.st71{fill:#83C132;}
	.st72{fill:#FBFFF2;}
	.st73{fill:#FAFFEE;}
	.st74{fill:#ECFBD9;}
	.st75{fill:#83BF2E;}
	.st76{fill:#7DBF28;}
	.st77{fill:#88C236;}
	.st78{fill:#7EC028;}
	.st79{fill:#F9FFE7;}
	.st80{fill:#88BD45;}
	.st81{fill:#FDFEFD;}
	.st82{fill:#5B4973;}
	.st83{fill:#F77AFC;}
	.st84{fill:#199A57;}
	.st85{fill:#272D3D;}
	.st86{fill:#703D91;}
	.st87{fill:#A97BC0;}
	.st88{fill:#BC87D1;}
	.st89{fill:#733B92;}
	.st90{fill:#B83E15;}
	.st91{fill:#9D4717;}
	.st92{fill:#EBA2F2;}
	.st93{fill:#405963;}
	.st94{fill:#2893CE;}
	.st95{fill:#5A7C8C;}
	.st96{fill:#A3582C;}
	.st97{fill:#CD5433;}
	.st98{fill:#159151;}
	.st99{fill:#1D9ADE;}
	.st100{fill:#36C1F0;}
	.st101{fill:#006EB5;}
	.st102{fill:#1A9CE0;}
	.st103{fill:#92CAF9;}
	.st104{fill:#B8D3E7;}
	.st105{fill:#DFF6FF;}
	.st106{fill:#705A4F;}
	.st107{fill:#C28635;}
	.st108{fill:#6F5E58;}
	.st109{fill:#6B4A29;}
	.st110{fill:#8E7C76;}
	.st111{fill:#EF5A5C;}
	.st112{fill:#DF2729;}
	.st113{fill:#313853;}
	.st114{fill:#B82026;}
	.st115{fill:#F8B75C;}
	.st116{fill:#E0C098;}
	.st117{fill:#DE272A;}
	.st118{fill:#627C89;}
	.st119{fill:#4050B2;}
	.st120{fill:#1B2375;}
	.st121{fill:#BAC0CC;}
	.st122{fill:#375990;}
	.st123{fill:#E2E3E5;}
	.st124{fill:#345997;}
	.st125{fill:#335999;}
	.st126{fill:#335997;}
	.st127{fill:#355894;}
	.st128{fill:#335998;}
	.st129{fill:#325998;}
	.st130{fill:#345998;}
	.st131{fill:#345995;}
	.st132{fill:#D5E6F5;}
	.st133{fill:#D8E4F6;}
	.st134{fill:#E0E3E7;}
	.st135{fill:#D9E4F7;}
	.st136{fill:#385891;}
</style>
<path class="st0" d="M24.98,4.48C226.32,4.44,427.66,4.49,629,4.46c4.13,0.07,8.9-0.4,12.82,0.93c6.07,2.07,11.04,7.39,11.74,13.91
	c-0.48,1.87-0.84,3.76-0.88,5.71c0.08,175.98-0.01,352.01,0.04,528c0.1,6.77-0.57,13.29,0.87,19.99
	c-1.62,6.23-6.31,11.39-12.58,13.08c-4.45,1.11-9.44,0.61-14.01,0.69c-197-0.01-394,0-591,0c-4.32-0.04-8.72,0.22-13.02-0.21
	c-7.26-0.74-13.54-6.43-15.09-13.54c-0.87-4.2-0.42-8.74-0.5-13.01c0-176.67,0.01-353.33-0.01-530c0.09-4.95-0.58-10.45,1.57-15
	C11.74,8.75,18.11,4.53,24.98,4.48L24.98,4.48z"/>
<path class="st1" d="M71.19,34.25c9.45-2.1,19.71,1.24,26.31,8.27c6.58,6.96,9.24,17.25,6.71,26.5C101.2,80.79,90.21,89.76,78,89.9
	c-11.79,0.67-22.99-6.78-27.24-17.72c-3.67-9.07-2.12-19.84,3.89-27.54C58.71,39.31,64.67,35.7,71.19,34.25L71.19,34.25z"/>
<path class="st2" d="M74.72,46.55c1.28,0.67,2.42,1.66,3.54,2.57c0.5,0.42,0.99,0.86,1.47,1.3c-0.85,1.87-1.89,3.43-1.89,5.56
	c-0.3,2.96,0.3,5.46-2.42,7.45c-4.93,3.32-11.61-0.32-13.56-5.42c-1.59-3.38-0.53-8.44,3.34-9.66
	C68.44,47.85,71.55,47.41,74.72,46.55L74.72,46.55z"/>
<path class="st3" d="M84.3,46.71c2.63,2.15,5.2,4.58,4.51,8.32c-0.04,1.84-1.99,2.93-3.22,4.03c-1.47,0.3-2.95,0.58-4.41,0.95
	c0.97-0.33,1.95-0.64,2.94-0.92c-0.63-3.62-1.32-6.34-4.39-8.67c-0.48-0.44-0.97-0.88-1.47-1.3C79.88,47.96,82.19,44.85,84.3,46.71
	L84.3,46.71z"/>
<path class="st4" d="M82.23,48.42c1.42-1.13,3.33,0.87,2.21,2.28C82.87,52.11,81.01,49.95,82.23,48.42L82.23,48.42z"/>
<path class="st5" d="M75.21,49.08c1.82-0.41,2.58,2.12,0.81,2.74C74.28,52.03,73.53,49.8,75.21,49.08L75.21,49.08z"/>
<path class="st6" d="M400.56,50.02c11.13-1.18,22.42,4.9,27.64,14.8c6.04,11.01,3.67,25.34-5.58,33.81
	c-8.95,8.6-23.24,10.09-33.8,3.6c-9.65-5.75-15.05-17.12-13.34-28.24C377.27,61.32,387.87,51.35,400.56,50.02L400.56,50.02z"/>
<path class="st7" d="M66.36,51.39c4.52-1.61,10.22,4.38,7.7,8.68c-2.37,2.57-6.57,0.61-8.3-1.8C64.29,56.43,63.62,52.4,66.36,51.39
	L66.36,51.39z"/>
<path class="st8" d="M86.23,53.24c1.81,0.33,0.61,2.77-0.83,1.75C84.96,54.12,85.24,53.53,86.23,53.24L86.23,53.24z"/>
<path class="st9" d="M85.59,59.06c0.67,0.41,1.33,0.84,1.98,1.28c0.35,1.09,0.69,2.18,1.02,3.27c2.31,2.28,4.68,3.75,4.46,7.42
	c-0.44,5.39-6.28,7.85-11.07,7.02c-4.06-0.65-7.67-3.69-7.4-8.08c0.2-2.67,2.87-4.56,4.59-6.39c0.59-1.41,0.52-2.82,2.01-3.57
	C82.64,59.64,84.12,59.36,85.59,59.06L85.59,59.06z"/>
<path class="st10" d="M388.24,60.7c6.49-0.73,13.49-1.41,19.89,0.17c-1.45,1.62-2.9,3.25-4.36,4.88c-1.39-0.11-2.78-0.29-4.16-0.52
	c-0.97-0.46-1.96-0.79-2.98-0.98c-2.47-0.23-4.92-0.36-7.38-0.67C388.88,62.64,388.52,61.68,388.24,60.7L388.24,60.7z"/>
<path class="st11" d="M83.1,62.2c1.79-1.17,2.95,1.59,0.83,2C82.79,63.89,82.51,63.22,83.1,62.2L83.1,62.2z"/>
<path class="st12" d="M396.63,64.25c1.02,0.19,2.01,0.52,2.98,0.98c-0.03,1.02-0.31,1.99-0.36,3.01l-1.09,1.36
	c-1.2-0.63-2.19-1.81-3.16-2.75c0.28-0.48,0.56-0.96,0.84-1.44L396.63,64.25L396.63,64.25z"/>
<path class="st13" d="M411.11,65.02c0.11,0.82,0.2,1.64,0.28,2.47l-1.09,2.28c-1.2-0.41-2.38-0.86-3.57-1.31
	c0.32-1.08,0.65-2.17,1-3.24C409.34,64.06,409.41,64.31,411.11,65.02L411.11,65.02z"/>
<path class="st14" d="M395.84,65.41c-0.28,0.48-0.56,0.96-0.84,1.44c0.97,0.94,1.96,2.12,3.16,2.75l1.09-1.36
	c2.49,0.13,4.99,0.21,7.48,0.22c1.19,0.45,2.37,0.9,3.57,1.31l1.09-2.28c1.08,0.23,2.09,0.59,3.04,1.07
	c0.84,1.25,0.88,3.05,1.26,4.5c-8.36,0.18-16.73,0.08-25.09,0.04c0.01-2.42,0.44-4.76,0.98-7.11
	C393,65.82,394.43,65.64,395.84,65.41L395.84,65.41z"/>
<path class="st15" d="M399.61,65.23c1.38,0.23,2.77,0.41,4.16,0.52c1.34-0.11,2.65-0.29,3.96-0.53c-0.35,1.07-0.68,2.16-1,3.24
	c-2.49-0.01-4.99-0.09-7.48-0.22C399.3,67.22,399.58,66.25,399.61,65.23L399.61,65.23z"/>
<path class="st16" d="M411.11,65.02c1.43,0.56,4,0.63,4.85,2.07c0.53,1.89,0.48,4,0.5,5.95l-0.77,0.02
	c-0.38-1.45-0.42-3.25-1.26-4.5c-0.95-0.48-1.96-0.84-3.04-1.07C411.31,66.66,411.22,65.84,411.11,65.02L411.11,65.02z"/>
<path class="st17" d="M80.28,67.31c3.08-1.83,9.46-0.82,9.47,3.59c-0.69,4.32-7.35,4.84-10.24,2.57
	C77.28,71.87,77.76,68.38,80.28,67.31L80.28,67.31z"/>
<path class="st18" d="M390.6,73.1c8.36,0.04,16.73,0.14,25.09-0.04l0.77-0.02c-0.12,3.99-0.06,7.98-0.07,11.97
	c-0.1,1.95,0.05,3.68-1.4,5.2c-5.23,0.82-10.7,0.17-15.99,0.39c-2.43-0.11-5.56,0.33-7.75-0.8C390.11,84.42,390.94,78.6,390.6,73.1
	L390.6,73.1z"/>
<path class="st19" d="M400.15,76.18c0.54,3.23,0.62,6.47,0.65,9.74c-0.75-0.04-1.5-0.08-2.24-0.11c-0.11-2.97-0.6-5.81-1.26-8.7
	C398.24,76.78,399.19,76.47,400.15,76.18L400.15,76.18z"/>
<path class="st20" d="M408.96,79.06c0.01,1.53-0.87,3.08-1.38,4.51c0.87,0.8,1.72,1.63,2.58,2.44c-2.8,0.21-5.56,0.23-8.36,0.06
	c1.84-2.37,3.67-4.73,5.37-7.2c-1.58,0.66-3.16,1.33-4.75,1.98c0.25-1.29,0.04-3.42,1.42-4.07
	C405.7,75.46,408.78,76.74,408.96,79.06L408.96,79.06z"/>
<path class="st1" d="M580.5,87.77c4.08-0.72,8.37-0.64,12.38,0.44c12.35,3.13,21.52,14.97,20.95,27.8
	c0.1,13.46-10.55,25.42-23.81,27.28c-12.67,2.08-25.51-5.24-30.31-17.09c-3.35-8.01-2.72-17.32,1.64-24.83
	C565.39,94.34,572.54,89.29,580.5,87.77L580.5,87.77z"/>
<path class="st21" d="M573.99,99.07c8.01,0.02,16.01,0.03,24.02,0c1.27,0.12,3.93-0.15,4.5,1.34c0.56,2.61,0.31,5.45,0.35,8.12
	c-11.29-0.09-22.6-0.08-33.89,0c0.06-2.6-0.33-5.61,0.53-8.07C570.34,98.8,572.45,99.27,573.99,99.07L573.99,99.07z"/>
<path class="st22" d="M572.08,102.11c1.2-0.04,3.47-0.64,3.61,1.16c0.52,1.75-0.92,2.39-2.38,2.52
	C571.31,104.94,572.09,103.86,572.08,102.11L572.08,102.11z"/>
<path class="st23" d="M581.46,101.55c-0.22,1.3,0.37,3.09-0.94,3.92c-1.08,1.38-3.58-0.62-3.14-2.06
	C577.9,101.54,579.94,102.1,581.46,101.55L581.46,101.55z"/>
<path class="st24" d="M584.4,102.14c5.22-0.55,10.57-0.16,15.81-0.16c-0.1,1.23-0.2,2.45-0.3,3.68c-5.26,0.03-10.53,0.06-15.8-0.04
	C584.18,104.46,584.28,103.3,584.4,102.14L584.4,102.14z"/>
<path class="st25" d="M568.97,108.53c11.29-0.08,22.6-0.09,33.89,0c-0.08,6.5,0.18,13,0.03,19.49c-0.19,1.47,0.12,3.57-1.24,4.52
	c-4.78,0.77-9.81,0.27-14.65,0.36c-5.27-0.12-10.65,0.36-15.89-0.24c-1.89-0.17-1.87-2.17-2.07-3.62
	C568.61,122.23,569.18,115.36,568.97,108.53L568.97,108.53z"/>
<path class="st26" d="M588.98,113.03c1.98,1.82-0.04,3.53-0.79,5.39c1.06,2.56,3.91,5.99,1.85,8.65c-1.76,2.87-6.38,2.91-8.05-0.07
	c-1.65-2.59-0.05-4.89,0.84-7.4c0.64,1.19,1.29,2.38,1.91,3.58c-0.56,0.63-1.11,1.27-1.64,1.93c1.13,2.3,2.98,1.69,5.14,2.21
	c1.24-5.18-2.57-7.86-4.25-12.38C584.54,112.5,586.93,111.08,588.98,113.03L588.98,113.03z"/>
<path class="st27" d="M586.17,114.22c1.79-1.19,2.93,1.59,0.83,2C585.87,115.91,585.59,115.25,586.17,114.22L586.17,114.22z"/>
<path class="st1" d="M167.57,137.98c8.19-1.07,16.89,1.92,22.84,7.63c4.81,4.55,7.86,10.83,8.59,17.4c0.78,7.39-1.5,15.04-6.21,20.8
	c-4.43,5.39-10.83,9.09-17.76,10.04c-10.11,1.59-20.79-2.85-26.76-11.16c-6.05-8.11-7.2-19.31-2.9-28.48
	C149.4,145.3,157.92,139.27,167.57,137.98L167.57,137.98z"/>
<path class="st1" d="M425.47,153.55c11.01-2.53,23,2.43,29.21,11.82c7.41,10.78,6.14,25.94-3.08,35.23
	c-8.11,8.71-21.5,11.08-32.22,6.03c-10.11-4.72-16.77-15.43-16.2-26.62C403.48,167.34,413.08,156.06,425.47,153.55L425.47,153.55z"
	/>
<path class="st28" d="M159.37,154.24c2.04-0.71,4.46,0.16,6.62,0.07c3.4-0.2,6.63-0.22,10.03-0.02c2.15,0.1,4.59-0.8,6.61-0.02
	c0.14,3.29-0.42,6.41,0.03,9.72c0.38,3.23,1.34,6.85,0.48,10.04c-0.86,2.88-3.53,5.01-6.01,6.49c-2.72,1.54-5.4,2.81-8.57,1.72
	c-3.3-1.2-6.59-3.26-8.7-6.12c-2.2-3.16-1.12-7.6-0.65-11.12C159.86,161.36,159.26,157.88,159.37,154.24L159.37,154.24z"/>
<path class="st29" d="M178.71,158.03c0.25,4.69,1.37,9.33,1.4,14.01c-0.14,2.86-2.12,4.38-4.38,5.73c-2.19,1.11-4.3,2.57-6.76,1.33
	c-3.03-1.28-6.91-3.34-7.15-7.06c-0.06-4.69,1.14-9.39,1.39-14.09C168.51,157.3,173.41,157.37,178.71,158.03L178.71,158.03z"/>
<path class="st30" d="M170.87,162.36l0.37,0.5c1.43,2.45,2.92,2.87,5.51,3.68c-0.88,0.87-1.77,1.75-2.65,2.63
	c0.18,1.29,0.36,2.58,0.54,3.87c-1.16-0.53-2.33-1.07-3.49-1.61c-1.25,0.52-2.51,1.03-3.77,1.54c0.19-1.27,0.37-2.55,0.55-3.83
	c-0.89-0.87-1.79-1.74-2.68-2.61C168.56,165.64,169.17,165.35,170.87,162.36L170.87,162.36z"/>
<path class="st31" d="M412.88,163.91c5.31-0.06,10.62-0.06,15.92-0.02c-2.19,2.62-2.65,5.47-2.81,8.79
	c-0.13-1.84-0.15-3.7-0.19-5.55c-4.14,0.03-8.29,0.14-12.43,0.04C413.19,166.09,413.03,165,412.88,163.91L412.88,163.91z"/>
<path class="st32" d="M428.8,163.89c1.47-0.01,2.93-0.01,4.39,0.01c0.92,1.66,1.82,3.32,2.55,5.08c0,1.52-0.25,2.98-0.59,4.46
	c-0.25-2.31-0.74-4.39-1.91-6.42c-1.99,0.7-3.94,1.49-5.9,2.27c-0.44,1.13-0.89,2.27-1.35,3.39
	C426.15,169.36,426.61,166.51,428.8,163.89L428.8,163.89z"/>
<path class="st33" d="M433.19,163.9c5.38,0.02,10.77-0.05,16.15-0.04c-0.01,1.11-0.01,2.22-0.02,3.33
	c-4.51-0.02-9.03-0.01-13.54-0.04l-0.04,1.83C435.01,167.22,434.11,165.56,433.19,163.9L433.19,163.9z"/>
<path class="st34" d="M433.24,167.02c1.17,2.03,1.66,4.11,1.91,6.42l-0.34,1.15l-1.43,1.86l-0.44,0.58c-1.5-0.23-3-0.47-4.49-0.75
	l-0.06-0.01l-1.18-1.13c-0.43-0.81-0.84-1.63-1.22-2.46c0.46-1.12,0.91-2.26,1.35-3.39C429.3,168.51,431.25,167.72,433.24,167.02
	L433.24,167.02z"/>
<path class="st35" d="M413.7,174.52c4.44,0.07,9.16-0.36,13.51,0.62l-0.01,1.97c-4.9,0.91-9.58,0.57-14.58,0.59
	C412.99,176.64,413.36,175.58,413.7,174.52L413.7,174.52z"/>
<polygon class="st36" points="427.21,175.14 428.39,176.27 427.2,177.11 427.21,175.14 "/>
<path class="st37" d="M434.81,174.59c4.88-0.1,9.77,0,14.65,0.01l-0.09,3c-5.5-0.34-10.62,0.46-15.99-1.15L434.81,174.59
	L434.81,174.59z"/>
<path class="st38" d="M428.39,176.27l0.06,0.01c0.06,1.22,0.11,2.44,0.16,3.66l-0.41-0.03c-1.79-0.16-3.57-0.36-5.36-0.58l0.08-1.22
	c-3.43-0.23-6.87-0.25-10.3-0.41c5-0.02,9.68,0.32,14.58-0.59L428.39,176.27L428.39,176.27z"/>
<path class="st39" d="M428.45,176.28c1.49,0.28,2.99,0.52,4.49,0.75c0.09,1.04,0.2,2.08,0.33,3.11c-1.55-0.03-3.11-0.1-4.66-0.2
	C428.56,178.72,428.51,177.5,428.45,176.28L428.45,176.28z"/>
<path class="st40" d="M433.38,176.45c5.37,1.61,10.49,0.81,15.99,1.15c-4.1,0.48-8.4,0.32-12.54,0.42c0.62,0.62,1.25,1.23,1.88,1.83
	c-1.81,0.11-3.62,0.26-5.44,0.29c-0.13-1.03-0.24-2.07-0.33-3.11L433.38,176.45L433.38,176.45z"/>
<path class="st41" d="M422.84,179.33c0.11,2.28,0.32,4.61-0.31,6.83l-0.32,0.31c-1.01-0.3-2.02-0.59-3.03-0.88
	C420.15,183.17,421.2,181.33,422.84,179.33L422.84,179.33z"/>
<path class="st42" d="M422.84,179.33c1.79,0.22,3.57,0.42,5.36,0.58c-1.44,0.49-2.89,0.97-4.33,1.46c0.02,1.8,0.06,3.61,0.01,5.42
	l-1.7,0.54l0.35-1.17C423.16,183.94,422.95,181.61,422.84,179.33L422.84,179.33z"/>
<path class="st43" d="M428.2,179.91l0.41,0.03c1.55,0.1,3.11,0.17,4.66,0.2c1.82-0.03,3.63-0.18,5.44-0.29l0.07,0.06
	c-0.05,2.13-0.05,4.25,0.09,6.37l0.39,1.3c-1.44-0.4-2.9-0.74-4.36-1.05c-0.57,1.02-1.14,2.04-1.69,3.06
	c-1.6,0.04-3.2,0.05-4.8,0.11c-0.97-3.44-1.38-2.82-4.53-2.91c0.05-1.81,0.01-3.62-0.01-5.42
	C425.31,180.88,426.76,180.4,428.2,179.91L428.2,179.91z"/>
<path class="st44" d="M438.78,179.91c1.99,1.47,2.84,3.54,3.88,5.69c-1.27,0.21-2.53,0.44-3.79,0.68
	C438.73,184.16,438.73,182.04,438.78,179.91L438.78,179.91z"/>
<path class="st45" d="M413.25,185.34c1.98,0.06,3.96,0.08,5.93,0.25c1.01,0.29,2.02,0.58,3.03,0.88c-2.55,2.94-5.85,2.09-9.3,2.12
	C413.02,187.51,413.14,186.42,413.25,185.34L413.25,185.34z"/>
<path class="st46" d="M442.66,185.6c2.21-0.17,4.49-0.17,6.71-0.19c0.01,1.08,0.02,2.15,0.02,3.23c-2.31,0-4.67,0.03-6.98-0.15
	c-1.05-0.28-2.11-0.59-3.15-0.91l-0.39-1.3C440.13,186.04,441.39,185.81,442.66,185.6L442.66,185.6z"/>
<path class="st47" d="M423.88,186.79c3.15,0.09,3.56-0.53,4.53,2.91c-1.51,1.02-2.97,2.07-4.32,3.3l-0.59,1.07
	c-1.71,0.55-3.3,0.62-4.77,0.22c-0.19-1.59-0.11-3.12,0.23-4.57c0.92-0.95,2.12-1.68,3.22-2.39L423.88,186.79L423.88,186.79z"/>
<path class="st48" d="M434.9,186.53c1.46,0.31,2.92,0.65,4.36,1.05c1.04,0.32,2.1,0.63,3.15,0.91c0.28,1.19,0.57,2.38,0.86,3.57
	c-0.35,1.03-0.71,2.07-1.06,3.11c-2.21-1.15-4.39-2.36-6.43-3.78c-0.86-0.6-1.72-1.2-2.57-1.8
	C433.76,188.57,434.33,187.55,434.9,186.53L434.9,186.53z"/>
<path class="st49" d="M428.41,189.7c1.6-0.06,3.2-0.07,4.8-0.11c0.85,0.6,1.71,1.2,2.57,1.8c0.53,0.37,1.06,0.74,1.6,1.11
	c0.32,1.61,0.65,3.23,1,4.84c-0.29,0.95-0.58,1.89-0.87,2.83c-4.58,0.02-9.17,0.04-13.75-0.01c-0.05-0.95-0.09-1.91-0.13-2.86
	c-0.05-1.08-0.1-2.16-0.13-3.23l0.59-1.07C425.44,191.77,426.9,190.72,428.41,189.7L428.41,189.7z"/>
<path class="st50" d="M413.29,197.31c3.44-0.12,6.9-0.03,10.34-0.01c0.04,0.95,0.08,1.91,0.13,2.86c-3.61-0.02-7.22-0.02-10.83-0.06
	C413.04,199.17,413.16,198.24,413.29,197.31L413.29,197.31z"/>
<path class="st51" d="M438.38,197.34c3.66-0.07,7.33-0.08,10.99-0.04c0.05,0.87,0.09,1.74,0.13,2.62
	c-3.99,0.24-7.99,0.26-11.99,0.25C437.8,199.23,438.09,198.29,438.38,197.34L438.38,197.34z"/>
<path class="st52" d="M119.56,249.44c5.2,5.14,9.67,10.96,14.87,16.13c7.14,7.83,14.29,15.75,21.4,23.61
	c2.25,2.39,1.67,4.97,1.85,7.98c-3.5,4.05-7.02,7.5-11.31,10.72l0.25-0.91c-0.61-1.15-1.26-2.27-1.91-3.4l0.04-1.86
	c0.86,1.26,1.77,2.48,2.72,3.68c0.96-5.4-1.34-9.25-4.68-13.16c-3.04-3.25-2.42-7.49-5.76-10.25c-6.06-4.95-14.26-7.49-22.04-7.51
	c-4.5,0.05-9.75-1.93-14.04-0.66c-5.46,3.16-10.3,7.31-15.95,10.22c-2.28,1.02-3,2.64-4.03,4.83c1.82-0.37,3.63-0.75,5.4-1.34
	l-0.73,0.53c-2.96,2.36-7.91,3.77-7.18,8.45c0.12,0.65,0.26,1.28,0.4,1.92c-1.14,1.33-2.2,2.74-3.25,4.13
	c-2.8-3.13-5.47-6.37-8.35-9.42c0.1-1.69,0.11-3.46,0.49-5.11c1.21-2.27,3.56-4.11,5.48-5.79c3.89-3.29,7.32-7.04,11.4-10.13
	c4.43-3.39,7.82-7.79,12.15-11.31c4.53-3.78,8.41-8.32,13.07-11.93C112.54,246.64,117.24,246.62,119.56,249.44L119.56,249.44z"/>
<path class="st53" d="M108.94,264.81c1.45-0.04,4.54-0.77,4.79,1.28c-1.27,2.52-4.73,1.54-7.08,1.71
	C107.38,266.53,107.25,265.11,108.94,264.81L108.94,264.81z"/>
<path class="st54" d="M463.88,267.24c2.09,0.66,2.8,3.08,3.86,4.78c-1.02,1.56-1.97,4.15-3.89,4.75c-3.21,1.42-7.34-1.18-7.27-4.76
	C456.48,268.37,460.61,265.71,463.88,267.24L463.88,267.24z"/>
<path class="st54" d="M500.39,267.47c3.84-2.12,8.66,1.25,7.69,5.55c-0.96,3.95-5.72,5.52-8.76,2.7
	C496.61,273.39,497.25,269.05,500.39,267.47L500.39,267.47z"/>
<path class="st55" d="M492.76,268.62c0.04,2.18,0.07,4.36,0.09,6.53c-2.12,0.32-5.53-0.21-6.72,1.95c-0.45,1.46-0.5,3.07-0.71,4.58
	c2.45,0.02,4.9,0.02,7.35,0.01c0.02,2.54,0.01,5.08-0.02,7.62c-2.28-0.03-4.56-0.05-6.83-0.06c-0.21,9.55-0.06,19.11-0.1,28.66
	c-3.24,0.01-6.47,0.01-9.71,0.01c-0.01-9.53,0.09-19.06-0.05-28.59c-1.63-0.07-3.26-0.11-4.9-0.18c0.02-2.48,0.05-4.95,0.08-7.42
	c1.6-0.04,3.2-0.1,4.8-0.13c0.24-3.95-0.44-7.83,2.88-10.7C482.59,267.78,488.3,268.58,492.76,268.62L492.76,268.62z"/>
<path class="st56" d="M207.2,268.59c0,1.56,0.01,3.12,0.02,4.67c-1.97,0.3-4.91,0.05-6.41,1.58c-1.39,2.1-1.01,5.48-1.28,7.9
	c2.42,0.05,4.83,0.08,7.25,0.1c0.02,1.61,0.05,3.22,0.07,4.83c-2.35,0.01-4.7,0.02-7.06,0.04c-0.03,10.07-0.02,20.14,0,30.21
	c-1.98-0.01-3.95-0.02-5.93-0.03c-0.07-10.05-0.05-20.11-0.01-30.16c-1.57-0.01-3.14-0.06-4.71-0.07c-0.01-1.59-0.01-3.18-0.02-4.77
	c1.54-0.01,3.08-0.08,4.62-0.09c0.18-3.98-0.33-9.22,2.92-12.15C199.45,268.11,203.71,268.64,207.2,268.59L207.2,268.59z"/>
<path class="st57" d="M344.5,269.39c1.9-0.23,3.83-0.23,5.74-0.3c0.12,16.27,0.03,32.54,0.04,48.8c-1.96,0.03-3.92,0.06-5.88,0.09
	c0.02-1.9,0.04-3.81,0.09-5.71c-1.96,2.2-3.76,4.46-6.62,5.53c-4.64,1.65-10.37,0.79-14.06-2.59c-3.73-3.37-5.35-8.28-5.53-13.21
	c-0.29-5.78,0.77-11.51,4.87-15.85c3.62-3.74,9.14-4.81,14.06-3.38c3.04,0.99,4.89,3.1,7.18,5.2
	C344.49,281.78,344.16,275.56,344.5,269.39L344.5,269.39z"/>
<path class="st56" d="M235.31,270.33c2.37-1.91,5.78-0.25,5.96,2.68c0.13,2.29-1.84,4.24-4.19,3.85
	C233.87,276.55,232.73,272.2,235.31,270.33L235.31,270.33z"/>
<path class="st58" d="M100.95,273.81c4.29-1.27,9.54,0.71,14.04,0.66c7.78,0.02,15.98,2.56,22.04,7.51c3.34,2.76,2.72,7,5.76,10.25
	c3.34,3.91,5.64,7.76,4.68,13.16c-0.95-1.2-1.86-2.42-2.72-3.68c-1.08-3.53-3.35-6.04-5.75-8.72c-2.72-2.86-1.42-6.87-4.84-9.18
	c-5.25-3.68-11.66-6.18-18.13-6.28c-4.58-0.1-8.99-1.35-13.58-1.37c2.04,1.43,4.03,2.26,6.54,2.38c7.33,0.6,16.18,0.6,22.42,5.04
	c2.08,1.32,2.87,3.2,3.67,5.45c-5.23-2.38-9.29-5.69-15.09-6.83c-4.73-1.13-9.31-0.01-13.89-1.38c-2.77-0.66-5.21-1.98-8.05-0.8
	c-4.19,1.61-8.01,4.94-11.68,7.5c-1.77,0.59-3.58,0.97-5.4,1.34c1.03-2.19,1.75-3.81,4.03-4.83
	C90.65,281.12,95.49,276.97,100.95,273.81L100.95,273.81z"/>
<path class="st59" d="M94.81,274.38c-0.59,3.62-5.14,6.25-8.53,6.33C86.45,276.64,91.16,274.33,94.81,274.38L94.81,274.38z"/>
<path class="st60" d="M102.45,276.16c4.59,0.02,9,1.27,13.58,1.37c6.47,0.1,12.88,2.6,18.13,6.28c3.42,2.31,2.12,6.32,4.84,9.18
	c2.4,2.68,4.67,5.19,5.75,8.72l-0.04,1.86c-3.43-4.48-6.3-8.92-10.91-12.35c-6.71-4.88-14.28-8.53-22.81-7.91
	c-6.78-0.02-12.75,2.46-17.58,7.17c-0.89,0.87-0.99,2.47-1.4,3.6c4.48-2.43,7.31-5.69,12.02-6.88c5.67-1.5,12.08-2.31,17.61,0.12
	c4.4,1.92,8.87,4.34,12.34,7.71c4.09,4.21,7.41,9.64,10.54,14.57c-0.5,0.42-0.97,0.86-1.43,1.32c-5.06-8.13-9.7-15.8-18.32-20.7
	c-5.46-3.04-11.8-2.38-17.78-1.79c-4.46,0.57-7.57,2.97-11.18,5.36c-3.36,2.33-7.31,3.06-10.41,5.59c-2.32,1.9-4.39,4.14-6.43,6.34
	l-0.77-0.95c1.86-3.56,4.09-5.88,7.31-8.21c4.15-2.87,5.7-7.5,9.98-10.04c2.77-1.68,5.69-2.8,7.99-5.19
	c-4.86-0.55-8.85,1.74-12.34,4.83c-2.36,2.26-3.83,5.47-6.35,7.52c-1.94,1.63-4.02,3.07-5.93,4.74c-0.14-0.64-0.28-1.27-0.4-1.92
	c2.76-1.41,5.39-2.94,7.51-5.27l-0.33-3.18l0.73-0.53c3.67-2.56,7.49-5.89,11.68-7.5c2.84-1.18,5.28,0.14,8.05,0.8
	c4.58,1.37,9.16,0.25,13.89,1.38c5.8,1.14,9.86,4.45,15.09,6.83c-0.8-2.25-1.59-4.13-3.67-5.45c-6.24-4.44-15.09-4.44-22.42-5.04
	C106.48,278.42,104.49,277.59,102.45,276.16L102.45,276.16z"/>
<path class="st55" d="M424.01,289.01c2.35,4.22,2.38,8.55,2.45,13.25c-8.46,0.11-16.95-0.24-25.39,0.22
	c0.71,1.99,1.24,4.29,2.43,6.06c2.18,2.71,6.18,3.47,9.34,2.23c1.87-0.91,3.38-2.63,5.14-3.77c2.68-0.53,5.59-0.2,8.31-0.12
	c-1.07,2.69-1.96,5.24-4.15,7.27c-4.5,4.41-11.22,5.17-17.18,4.08c-5.01-0.99-9.34-4.27-11.36-9c-2.96-6.8-2.54-15.67,1.81-21.8
	C401.92,278.3,418.7,278.89,424.01,289.01L424.01,289.01z"/>
<path class="st55" d="M452.23,280.93c0.07,2.93,0.1,5.84,0.12,8.77c-2.95,0.03-6.68-0.64-8.97,1.67c-2.27,2.12-2.26,4.74-2.35,7.64
	c-0.02,6.3,0.06,12.61,0,18.91c-3.28,0-6.56,0-9.84,0c0.01-12.06,0.03-24.11-0.02-36.16c3.26-0.05,6.51-0.06,9.77-0.06
	c0.09,2.04,0.17,4.08,0.22,6.12c1.21-2.41,1.99-4.86,4.61-6.07C447.75,280.98,450.14,281.12,452.23,280.93L452.23,280.93z"/>
<path class="st55" d="M545.23,288.8c2.57,4.26,2.44,8.58,2.6,13.37c-8.35,0.21-16.71,0.01-25.07,0.13c0.45,1.95,0.7,4.38,1.93,6.01
	c2.34,3.17,7.26,3.89,10.59,1.97c1.41-0.9,2.59-2.28,3.75-3.48c2.88-0.04,5.75-0.03,8.63,0.02c-1.38,4.34-3.64,7.97-7.9,9.95
	c-7.2,3.49-18.1,2.38-23.04-4.47c-4.76-6.61-4.77-17.24-0.51-24.08C522.29,278.35,539.6,278.58,545.23,288.8L545.23,288.8z"/>
<path class="st55" d="M573.63,281.08c0.04,2.88,0.05,5.75,0.1,8.62c-2.9,0.02-6.28-0.59-8.71,1.36c-2.13,1.75-2.53,4.31-2.61,6.91
	c-0.1,6.65,0.06,13.31-0.03,19.96c-3.29-0.01-6.57,0-9.85,0.01c-0.02-12.08-0.04-24.16,0.01-36.23c3.3-0.01,6.6-0.01,9.9,0
	c-0.05,2.04-0.11,4.09-0.2,6.13c1.24-2.15,2.37-4.81,4.69-5.97C568.87,280.9,571.5,281.18,573.63,281.08L573.63,281.08z"/>
<path class="st61" d="M103.48,281.33c-2.3,2.39-5.22,3.51-7.99,5.19c-4.28,2.54-5.83,7.17-9.98,10.04
	c-3.22,2.33-5.45,4.65-7.31,8.21l-0.64-0.55c-0.66-0.54-1.31-1.1-1.95-1.67c1.05-1.39,2.11-2.8,3.25-4.13
	c1.91-1.67,3.99-3.11,5.93-4.74c2.52-2.05,3.99-5.26,6.35-7.52C94.63,283.07,98.62,280.78,103.48,281.33L103.48,281.33z"/>
<path class="st57" d="M229.4,282.12c0.02,1.85,0.05,3.71,0.08,5.56c-2.7,0.19-5.92-0.22-8.05,1.77c-2.59,2.28-2.66,5.34-2.75,8.56
	c0.01,6.63,0.04,13.26,0.05,19.9c-1.99-0.01-3.97-0.01-5.95-0.01c-0.01-11.67-0.03-23.34,0-35.01c1.96-0.04,3.92-0.08,5.88-0.12
	c0.01,1.71,0.01,3.42,0,5.13c1.42-1.8,2.96-4.22,5.13-5.14C225.55,282.18,227.56,282.26,229.4,282.12L229.4,282.12z"/>
<path class="st57" d="M274.84,288.15c2.98,4.24,3.07,8.75,3.32,13.73c-8.52,0.05-17.04-0.05-25.55,0.08
	c0.55,2.81,0.75,5.5,2.59,7.83c2.96,3.88,8.78,4.48,12.97,2.42c1.68-0.89,2.89-2.86,4.05-4.33c1.88-0.03,3.76-0.05,5.64-0.06
	c-0.78,1.9-1.42,3.79-2.66,5.37c-6.23,7.81-20.69,7.2-25.7-1.7c-3.9-6.88-3.68-16.6,0.78-23.18
	C255.72,280.2,269.34,280.03,274.84,288.15L274.84,288.15z"/>
<path class="st57" d="M296.47,282.64c4.18-0.96,9.17-0.59,12.45,2.46c3.06,2.9,3.69,6.86,3.71,10.9c0.02,7.29-0.06,14.59,0.01,21.88
	c-1.98,0.02-3.95,0.03-5.93,0.04c-0.11-7.31,0.06-14.63-0.05-21.94c-0.1-2.86-0.62-5.7-3.2-7.38c-3.62-2.16-9.26-1.5-11.86,2.01
	c-2.12,2.7-2.02,6.13-2.08,9.4c0.05,5.95,0.03,11.91,0.05,17.86c-1.97,0.03-3.94,0.05-5.92,0.08c-0.03-11.7-0.03-23.4,0-35.11
	c1.97-0.01,3.93-0.02,5.9-0.03c-0.02,1.6-0.07,3.2-0.1,4.79C291.53,285.42,293.4,283.39,296.47,282.64L296.47,282.64z"/>
<path class="st55" d="M355.12,281.72c3.42-0.01,6.84-0.02,10.26-0.09c2.86,9.08,5.18,18.34,7.7,27.53
	c2.99-9.01,5.01-18.36,7.74-27.46c3.38,0.01,6.76,0,10.13-0.01c-3.76,12.15-8.25,24.08-12.22,36.17c-3.77,0.08-7.53,0.08-11.29,0
	C363.45,305.77,359,293.83,355.12,281.72L355.12,281.72z"/>
<path class="st62" d="M456.88,281.73c3.31-0.04,6.6-0.03,9.91,0.06c-0.1,12.04-0.02,24.09-0.03,36.13c-3.3,0-6.59-0.01-9.89-0.03
	C456.84,305.84,456.83,293.78,456.88,281.73L456.88,281.73z"/>
<path class="st62" d="M497.95,281.74c3.3-0.05,6.58-0.04,9.87,0.03c-0.1,12.05-0.02,24.09-0.03,36.14
	c-3.29,0.01-6.57,0.01-9.86-0.03C497.84,305.84,497.8,293.78,497.95,281.74L497.95,281.74z"/>
<path class="st63" d="M234.64,282.77c1.98,0.06,3.97,0.12,5.95,0.19c-0.08,11.63-0.06,23.27-0.02,34.9
	c-1.98,0.03-3.95,0.06-5.92,0.09C234.62,306.23,234.63,294.5,234.64,282.77L234.64,282.77z"/>
<path class="st64" d="M110.99,283.31c8.53-0.62,16.1,3.03,22.81,7.91c4.61,3.43,7.48,7.87,10.91,12.35c0.65,1.13,1.3,2.25,1.91,3.4
	l-0.25,0.91l-1.85,1.72c-3.13-4.93-6.45-10.36-10.54-14.57c-3.47-3.37-7.94-5.79-12.34-7.71c-5.53-2.43-11.94-1.62-17.61-0.12
	c-4.71,1.19-7.54,4.45-12.02,6.88c0.41-1.13,0.51-2.73,1.4-3.6C98.24,285.77,104.21,283.29,110.99,283.31L110.99,283.31z"/>
<path class="st65" d="M269.56,290.45c1.54,1.8,2.04,4.63,2.71,6.85c-6.55,0.08-13.09,0.1-19.63,0c0.8-2.45,1.46-5.44,3.36-7.29
	C259.53,286.36,266.31,286.48,269.56,290.45L269.56,290.45z"/>
<path class="st66" d="M95.76,297.77c-2.39,1.45-5.27,2.02-7.65,3.42c-2.61,1.7-4.74,4.44-6.68,6.84c-0.94-0.58-1.76-1.36-2.46-2.31
	c2.04-2.2,4.11-4.44,6.43-6.34c3.1-2.53,7.05-3.26,10.41-5.59c3.61-2.39,6.72-4.79,11.18-5.36l0,0c5.98-0.59,12.32-1.25,17.78,1.79
	c8.62,4.9,13.26,12.57,18.32,20.7c-0.87,0.8-1.72,1.62-2.56,2.45c-3.99-6.13-7.5-12.93-13.55-17.32c-3.59-2.5-7.48-4.75-11.98-4.81"
	/>
<path class="st67" d="M330.21,288.25c3.27-1.52,7.42-1.06,10.12,1.42c2.95,2.62,3.98,6.51,4.08,10.34c0.01,4.16-0.97,8.36-4.22,11.2
	c-3.73,3.27-10.11,2.77-13.15-1.21c-2.82-3.64-3.05-8.44-2.56-12.84C325,293.46,326.72,289.94,330.21,288.25L330.21,288.25z"/>
<path class="st68" d="M85.64,288.05l0.33,3.18c-2.12,2.33-4.75,3.86-7.51,5.27C77.73,291.82,82.68,290.41,85.64,288.05L85.64,288.05
	z"/>
<path class="st69" d="M415.03,290.98c0.95,1.46,1.52,3.22,2.17,4.84c-5.26,0.15-10.53,0.13-15.8,0.07c0.76-1.84,1.38-4.25,2.9-5.61
	C407.23,287.52,412.51,287.81,415.03,290.98L415.03,290.98z"/>
<path class="st70" d="M535.72,290.28c1.5,1.39,2.09,3.75,2.79,5.61c-5.27,0.06-10.55,0.07-15.82-0.05c0.68-1.61,1.3-3.4,2.29-4.85
	C527.48,287.86,532.84,287.47,535.72,290.28L535.72,290.28z"/>
<path class="st71" d="M115,291.24c4.5,0.06,8.39,2.31,11.98,4.81c6.05,4.39,9.56,11.19,13.55,17.32c-0.57,0.47-1.11,0.97-1.64,1.49
	c-3.36-6.86-7.97-15.24-15.19-18.57c-2.63-1.47-4.67-2.02-7.74-1.86c2.24,3.99,6.09,4.38,9.41,7.23c4.8,4.24,8.69,9.4,10.86,15.47
	c-0.58,0.51-1.16,1.03-1.74,1.55c-2.48-8.36-8.42-15.36-16.67-18.41c-5.52-1.82-10.7-0.95-16.23,0.14c4.26-4.51,9.12-3.16,14.4-5.2
	c-1.23-2.85-3.49-1.9-6-1.92c-4.91,0.49-9.01,2.77-11.98,6.72c-3.71,4.92-8.03,9.23-12.37,13.58l-1.35-1.53
	c2.31-3.37,5.62-5.52,8.42-8.38c0.6-1.04,0.97-2.26,1.1-3.67c-4.85,2-8.2,5.53-12.43,8.47l0.05-0.45c1.94-2.4,4.07-5.14,6.68-6.84
	c2.38-1.4,5.26-1.97,7.65-3.42c2.52-1.54,4.62-3.41,7.34-4.69C106.71,291.37,111.08,291.11,115,291.24L115,291.24z"/>
<path class="st72" d="M109.99,293.29c2.51,0.02,4.77-0.93,6,1.92c-5.28,2.04-10.14,0.69-14.4,5.2c5.53-1.09,10.71-1.96,16.23-0.14
	c8.25,3.05,14.19,10.05,16.67,18.41c-1.03,0.95-2.06,1.9-3.09,2.84c-1.82-6.52-5.01-12.37-10.76-16.2
	c-5.77-4.01-13.45-3.3-19.42-0.15c-4.87,2.75-8.7,7.58-12.94,11.25c-0.87-0.95-1.77-1.87-2.64-2.83c4.34-4.35,8.66-8.66,12.37-13.58
	C100.98,296.06,105.08,293.78,109.99,293.29L109.99,293.29z"/>
<path class="st73" d="M115.96,294.43c3.07-0.16,5.11,0.39,7.74,1.86c7.22,3.33,11.83,11.71,15.19,18.57
	c-0.9,0.74-1.78,1.5-2.66,2.27c-2.17-6.07-6.06-11.23-10.86-15.47C122.05,298.81,118.2,298.42,115.96,294.43L115.96,294.43z"/>
<path class="st74" d="M93.81,300.01c-0.13,1.41-0.5,2.63-1.1,3.67c-2.8,2.86-6.11,5.01-8.42,8.38c-1.01-1.16-1.99-2.35-2.91-3.58
	C85.61,305.54,88.96,302.01,93.81,300.01L93.81,300.01z"/>
<path class="st75" d="M120.64,305.32c5.75,3.83,8.94,9.68,10.76,16.2c-0.63,0.58-1.26,1.16-1.9,1.74c-1.2-3.89-1.96-7.85-4.71-11
	c-2.6-3.05-6.17-6.08-10.22-6.77c-5.58-0.77-11.4,0.86-15.87,4.25c-3.22,2.46-6.11,5.35-9.13,8.04c-0.43-0.45-0.86-0.9-1.29-1.36
	c4.24-3.67,8.07-8.5,12.94-11.25C107.19,302.02,114.87,301.31,120.64,305.32L120.64,305.32z"/>
<path class="st66" d="M114.57,305.49c4.05,0.69,7.62,3.72,10.22,6.77c2.75,3.15,3.51,7.11,4.71,11c-1.07,0.99-2.14,1.97-3.24,2.93
	c-0.62-3.21-0.88-7.02-2.59-9.84c-2.57-4.16-6.63-7.34-11.66-7.59c-2.98,0.21-6.25,1.1-8.94,2.41c-4.17,2.15-7.25,6.36-10.96,9.32
	c-0.88-0.88-1.73-1.78-2.54-2.71c3.02-2.69,5.91-5.58,9.13-8.04C103.17,306.35,108.99,304.72,114.57,305.49L114.57,305.49z"/>
<path class="st76" d="M112.01,308.76c5.03,0.25,9.09,3.43,11.66,7.59c1.71,2.82,1.97,6.63,2.59,9.84c-0.42,0.36-0.84,0.72-1.27,1.07
	l-2.11,0.57c-0.26-3.95,0.55-8.36-1.7-11.82c-2.35-4.69-9.11-6.64-13.8-4.64c-5.39,1.73-9.69,6.85-14.05,10.42
	c-0.5-0.37-0.91-0.81-1.22-1.3c3.71-2.96,6.79-7.17,10.96-9.32C105.76,309.86,109.03,308.97,112.01,308.76L112.01,308.76z"/>
<path class="st64" d="M107.38,311.37c4.69-2,11.45-0.05,13.8,4.64c2.25,3.46,1.44,7.87,1.7,11.82l2.11-0.57
	c-1.98,1.68-3.77,3.58-5.7,5.32c-0.47-5.75,1.25-10.83-1.41-16.36c-0.58,1.3-1.11,2.61-1.64,3.93c-2.23-0.83-4.43-1.72-6.6-2.73
	c-3.92,3.1-6.82,7.13-10.59,10.39l-0.78-0.54c-0.61-0.69-1.22-1.38-1.82-2.07c2.94-2.35,5.28-5.25,7.98-7.84
	c1.34-1.57,3.61-0.86,5.43-0.92c1.66-0.01,3.32-0.04,4.99-0.02c0.54-0.49,1.08-0.99,1.61-1.5c-4.16-1.27-8.13-2.15-11.94,0.61
	c-3.15,2.7-5.66,6.12-8.63,9.02c-0.88-0.89-1.74-1.81-2.56-2.76C97.69,318.22,101.99,313.1,107.38,311.37L107.38,311.37z"/>
<path class="st77" d="M116.46,314.92c-0.53,0.51-1.07,1.01-1.61,1.5c-1.67-0.02-3.33,0.01-4.99,0.02c-1.82,0.06-4.09-0.65-5.43,0.92
	c-2.7,2.59-5.04,5.49-7.98,7.84l-0.56-0.65c2.97-2.9,5.48-6.32,8.63-9.02C108.33,312.77,112.3,313.65,116.46,314.92L116.46,314.92z"
	/>
<path class="st78" d="M117.88,316.22c2.66,5.53,0.94,10.61,1.41,16.36c-0.74,0.68-1.49,1.35-2.24,2.01
	c-0.28-3.23,0.14-6.42,0.11-9.64c-0.81-4.22-6.26-5.88-9.6-3.33c-2.55,2.19-4.63,4.98-6.85,7.51l-0.29,0.62
	c-0.73-0.82-1.44-1.64-2.15-2.48l0.78,0.54c3.77-3.26,6.67-7.29,10.59-10.39c2.17,1.01,4.37,1.9,6.6,2.73
	C116.77,318.83,117.3,317.52,117.88,316.22L117.88,316.22z"/>
<path class="st79" d="M117.16,324.95c0.03,3.22-0.39,6.41-0.11,9.64c-1.14,1-2.31,1.96-3.53,2.87c0.06-3.83,0.69-7.65,0.6-11.47
	c-0.63-2.56-3.05-3.3-5.16-2.01c-2.14,2.75-3.76,5.83-6.11,8.45c-0.82-0.88-1.63-1.78-2.43-2.68l0.29-0.62
	c2.22-2.53,4.3-5.32,6.85-7.51C110.9,319.07,116.35,320.73,117.16,324.95L117.16,324.95z"/>
<path class="st80" d="M114.12,325.99c0.09,3.82-0.54,7.64-0.6,11.47c-0.68,0.19-1.36,0.37-2.05,0.52c-0.02-4.26-0.15-8.5,0.31-12.75
	c-0.64,0.12-1.27,0.25-1.91,0.37c-1.26,3.43-3.34,5.55-6.08,7.84l-0.94-1.01c2.35-2.62,3.97-5.7,6.11-8.45
	C111.07,322.69,113.49,323.43,114.12,325.99L114.12,325.99z"/>
<path class="st81" d="M111.78,325.23c-0.46,4.25-0.33,8.49-0.31,12.75c-3.72-0.01-5.41-1.99-7.68-4.54
	c2.74-2.29,4.82-4.41,6.08-7.84C110.51,325.48,111.14,325.35,111.78,325.23L111.78,325.23z"/>
<path class="st6" d="M550.37,374.44c10.98-2.77,22.83,1.59,29.47,10.72c7.44,9.99,7.19,24.35-0.61,34.06
	c-7.81,10.11-22.1,13.5-33.71,8.24c-10.91-4.84-17.73-16.57-16.49-28.45C530.2,387.25,538.85,377.18,550.37,374.44L550.37,374.44z"
	/>
<path class="st1" d="M313.47,379.57c11.44-2.63,23.97,3.01,29.88,13.08c6.5,10.65,4.97,24.99-3.78,33.92
	c-9.02,9.68-24.41,11.56-35.49,4.32c-10.64-6.63-15.43-19.87-11.88-31.85C295.13,389.25,303.44,381.61,313.47,379.57L313.47,379.57z
	"/>
<path class="st82" d="M538.94,384.84c6.98-0.52,14.06-0.06,21.06-0.21c5.31,0.17,10.79-0.44,16.04,0.38
	c1.05,7.54,0.13,15.45,0.51,23.08c-2.08,0.96-4.15,2.23-6.51,2.22c-3.35,0.04-6.68-0.64-10.04-0.68c-7.23-0.4-13.84,1.38-21.02-0.24
	c-0.26,1.05-0.52,2.1-0.78,3.15c-0.66-7.14-0.23-14.34-0.4-21.53C537.92,389.06,537.52,386.36,538.94,384.84L538.94,384.84z"/>
<path class="st83" d="M540.55,386.74c10.49-0.01,21.01-0.16,31.49,0.02c2-0.03,2.29,1.58,2.27,3.22c0.11,6.17-0.04,12.35-0.01,18.52
	c-2.3,0.09-4.59,0.17-6.89,0.24c-0.53-0.86-1.07-1.73-1.6-2.59c-4.59,0.03-9.24-0.35-13.82,0.03c-3.9,0.58-7.65,1.86-11.57,2.37
	C540.44,401.29,540.27,394,540.55,386.74L540.55,386.74z"/>
<path class="st84" d="M311.98,390.24c2.04-0.01,2.64,1.86,3.84,3.19c1.4,0.8,2.94,1.54,4.17,2.58c0.92,0.92,0.65,2.85,0.75,4.05
	l-0.06,0.87c-3.74,2.65-8.01,5.48-10.17,9.63l1.3,2.28c0.15,1.07,0.25,2.13,0.32,3.2c-0.95-0.64-1.91-1.29-2.83-1.98
	c-0.6-0.47-1.19-0.96-1.78-1.45c-2.2-0.92-4.56-1.11-5.69-3.48c-1.1-2.09,0.29-4.29,0.91-6.3c-0.11-1.91-0.65-4.2-0.02-6.03
	c1.01-1.54,3.1-2.39,4.56-3.5C308.86,391.86,309.48,389.87,311.98,390.24L311.98,390.24z"/>
<path class="st85" d="M543.86,392.6c9.18,1.62,17.75,1.52,26.93,0.04c-1.56,3.43-3.08,6.58-6.33,8.73
	c-2.66,1.33-4.96-1.02-7.33-1.91c-2.38,0.92-4.09,2.94-6.78,2.14C546.94,399.87,544.99,396.1,543.86,392.6L543.86,392.6z"/>
<path class="st86" d="M548.72,394.92c2.12,0.57,4.21,1.24,6.29,1.95c-1.23,0.28-2.46,0.53-3.7,0.76c-0.85-0.66-1.69-1.33-2.52-2.02
	L548.72,394.92L548.72,394.92z"/>
<path class="st87" d="M564.77,394.87c0.62,0.97,1.48,1.55,0.91,2.8c-1.4,2.43-5.17,2.4-5.65-0.78c1.03,0.55,2.07,0.86,3.13,0.95
	l0.57-1.04L564.77,394.87L564.77,394.87z"/>
<path class="st88" d="M548.79,395.61c0.83,0.69,1.67,1.36,2.52,2.02c1.24-0.23,2.47-0.48,3.7-0.76c-1.39,1.36-1.78,2.8-4.03,2.38
	C548.96,398.58,549.11,397.46,548.79,395.61L548.79,395.61z"/>
<path class="st89" d="M563.73,396.8l-0.57,1.04c-1.06-0.09-2.1-0.4-3.13-0.95C560.26,395.11,562.86,395.92,563.73,396.8
	L563.73,396.8z"/>
<path class="st90" d="M323.97,398.73c4.33,3.68,8.83,7.4,12.8,11.45c0.31,2.12-1.74,2.06-2.97,1.05c-3.54-2.72-6.66-5.98-10.08-8.86
	c-1.17,1-2.34,1.99-3.5,2.98c0.16-1.47,0.34-2.94,0.46-4.42l0.06-0.87C321.81,399.6,322.89,399.16,323.97,398.73L323.97,398.73z"/>
<path class="st91" d="M320.68,400.93c-0.12,1.48-0.3,2.95-0.46,4.42c-2.87,2.42-5.66,4.94-8.41,7.49l-1.3-2.28
	C312.67,406.41,316.94,403.58,320.68,400.93L320.68,400.93z"/>
<path class="st92" d="M551.99,406.18c4.58-0.38,9.23,0,13.82-0.03c0.53,0.86,1.07,1.73,1.6,2.59c-8.99,0.24-18.01,0.14-26.99-0.19
	C544.34,408.04,548.09,406.76,551.99,406.18L551.99,406.18z"/>
<path class="st93" d="M576.55,408.09c-0.24,1.22,0.23,3.76-0.95,4.43c-4.39,0.73-8.85-0.26-13.26,0.85l0.23,1.58
	c-0.24-0.73-0.48-1.46-0.73-2.19c-3.31,0.09-6.61,0.1-9.92,0.07c-4.58-0.03-9.14,0.07-13.72-0.29c0.26-1.05,0.52-2.1,0.78-3.15
	c7.18,1.62,13.79-0.16,21.02,0.24c3.36,0.04,6.69,0.72,10.04,0.68C572.4,410.32,574.47,409.05,576.55,408.09L576.55,408.09z"/>
<path class="st94" d="M325.65,413.62c1.45-0.22,2.94-0.29,4.41-0.4c0.05,1.27,0.05,2.54,0.01,3.81c-1.04,1.95-3.05,0.79-4.85,0.89
	C325.34,416.49,325.42,415.04,325.65,413.62L325.65,413.62z"/>
<path class="st95" d="M551.92,412.83c3.31,0.03,6.61,0.02,9.92-0.07c0.25,0.73,0.49,1.46,0.73,2.19c0.21,0.91,0.41,1.83,0.62,2.74
	c-3.99,0-7.99,0.01-11.98,0.06C551.45,416.11,551.69,414.47,551.92,412.83L551.92,412.83z"/>
<path class="st96" d="M309.3,414.06c0.92,0.69,1.88,1.34,2.83,1.98c0.1,2.8,0.14,5.6,0.25,8.39c-1.01-0.18-2.01-0.35-3.02-0.53
	C309.32,420.62,309.28,417.34,309.3,414.06L309.3,414.06z"/>
<path class="st97" d="M315.59,413.44c2.06,0.01,4.11,0.03,6.17,0.07c0.09,3.41,0.36,6.81,0.71,10.2c-2.31,0.38-4.62,0.62-6.95,0.78
	C315.53,420.81,315.56,417.13,315.59,413.44L315.59,413.44z"/>
<path class="st6" d="M88.55,419.98c12.19-1.37,24.48,6.05,29.02,17.43c4.62,11.17,1.36,24.55-7.99,32.22
	c-10.33,8.92-26.62,8.74-36.72-0.46c-9.38-8.08-12.21-21.98-6.86-33.14C70.15,427.2,78.87,421.09,88.55,419.98L88.55,419.98z"/>
<path class="st98" d="M329.69,418.43c2.03,1.85,4.07,3.68,5.96,5.69c-4.51,0.18-8.7,0.7-13.11-0.65c1.13-0.85,2.26-1.68,3.41-2.5
	C327.17,420.08,328.43,419.26,329.69,418.43L329.69,418.43z"/>
<path class="st99" d="M85.99,429.76c5.65,0.06,10.98-0.39,16.55,0.72c-0.23,1.39-0.46,2.77-0.69,4.15
	c-7.08-0.01-14.14-0.1-21.21,0.27c0.14-1.38,0.06-3.17,0.99-4.27C82.78,429.71,84.6,429.85,85.99,429.76L85.99,429.76z"/>
<path class="st100" d="M102.54,430.48c-0.08,11.98,0.08,23.95-0.08,35.93c-0.2-1.4-0.4-2.79-0.59-4.19
	c-7.07-0.02-14.13,0.13-21.2-0.18c0-9.04,0.08-18.09-0.03-27.14c7.07-0.37,14.13-0.28,21.21-0.27
	C102.08,433.25,102.31,431.87,102.54,430.48L102.54,430.48z"/>
<path class="st101" d="M94.61,432.72c-1.12,0.99-3.08,0.37-4.34-0.04C91.14,431.74,94.54,430.83,94.61,432.72L94.61,432.72z"/>
<path class="st1" d="M421.49,452.68c11.2-2.02,23,3.2,28.88,12.96c6.43,10.22,5.34,24.03-2.61,33.12
	c-8.12,9.59-22.26,12.6-33.57,7.04c-10.81-5.09-17.28-16.96-15.75-28.81C399.79,464.87,409.48,454.69,421.49,452.68L421.49,452.68z"
	/>
<path class="st102" d="M80.67,462.04c7.07,0.31,14.13,0.16,21.2,0.18c0.19,1.4,0.39,2.79,0.59,4.19c-7,0.29-13.98,0.07-20.99,0.17
	C81.16,465.08,80.88,463.56,80.67,462.04L80.67,462.04z"/>
<path class="st103" d="M415.29,465.61c5.07-0.38,10.36-0.28,15.43,0.08l-0.15,1.12c-0.33,2.19-0.62,4.39-0.9,6.59
	c2.5,0.17,4.99,0.34,7.49,0.5c-0.01,1.57,0.03,3.14,0.01,4.71c-1.42,0.18-3.74-0.52-4.68,0.84c-2.32,2.42-4.6,4.77-7.16,6.94
	c-2.76,1.82,0.39,5.63,2.96,5.44c0.33,0.23,0.67,0.46,1.01,0.68l0.87,0.61c0.36,0.24,0.71,0.49,1.06,0.74
	c0.92-1.15,1.88-2.27,2.8-3.42c1.15,1.69,2.26,3.4,3.35,5.14c-7.42,0.15-14.84,0.02-22.26,0.07c-0.5-6.89-0.16-13.75-0.3-20.64
	C414.81,471.92,414.71,468.65,415.29,465.61L415.29,465.61z"/>
<path class="st104" d="M430.72,465.69c2.56,1.81,5.18,3.99,6.85,6.68c0.84,3.43,0.28,7.33,0.16,10.84
	c-1.25-1.36-2.69-2.49-4.21-3.53c-0.38,0.96-0.76,1.93-1.13,2.9c-1.34,1.29-2.68,2.6-4.01,3.91c-1.04,0.37-1.91,0.88-2.61,1.53
	c0.73,1.33,1.63,2.58,2.52,3.81c-2.57,0.19-5.72-3.62-2.96-5.44c2.56-2.17,4.84-4.52,7.16-6.94c0.94-1.36,3.26-0.66,4.68-0.84
	c0.02-1.57-0.02-3.14-0.01-4.71c-2.5-0.16-4.99-0.33-7.49-0.5c2.1-0.13,4.19-0.27,6.29-0.39c-1.82-2.05-3.65-4.08-5.39-6.2
	L430.72,465.69L430.72,465.69z"/>
<path class="st105" d="M430.57,466.81c1.74,2.12,3.57,4.15,5.39,6.2c-2.1,0.12-4.19,0.26-6.29,0.39
	C429.95,471.2,430.24,469,430.57,466.81L430.57,466.81z"/>
<path class="st106" d="M433.52,479.68c1.52,1.04,2.96,2.17,4.21,3.53c0.49,0.58,0.96,1.17,1.43,1.76c-1.2,0.28-2.4,0.56-3.6,0.84
	c-1.05-1.08-2.1-2.16-3.17-3.23C432.76,481.61,433.14,480.64,433.52,479.68L433.52,479.68z"/>
<path class="st107" d="M432.39,482.58c1.07,1.07,2.12,2.15,3.17,3.23c-0.28,0.82-0.58,1.62-0.92,2.41l-0.4,0.45
	c-0.86,0.52-1.77,0.96-2.75,1.3c-1.01-1.19-2.04-2.35-3.11-3.48C429.71,485.18,431.05,483.87,432.39,482.58L432.39,482.58z"/>
<path class="st108" d="M428.38,486.49c1.07,1.13,2.1,2.29,3.11,3.48c-0.08,1.02-0.17,2.04-0.28,3.06l-1.91-0.52
	c-0.34-0.22-0.68-0.45-1.01-0.68c-0.89-1.23-1.79-2.48-2.52-3.81C426.47,487.37,427.34,486.86,428.38,486.49L428.38,486.49z"/>
<polygon class="st109" points="434.64,488.22 434.24,488.67 434.64,488.22 "/>
<path class="st110" d="M437.02,489.57c2.05,2.02,4.49,3.79,6.26,6.05c1.05,1.21-0.47,2.72-1.78,1.85c-2.39-1.84-4.27-4.4-6.38-6.55
	C435.75,490.47,436.39,490.02,437.02,489.57L437.02,489.57z"/>
<path class="st1" d="M207.45,497.54c7.34-1.89,15.36-0.81,21.82,3.21c8.36,5,13.69,14.51,13.51,24.26
	c0.02,8.05-3.66,15.82-9.73,21.07c-9.31,8.27-23.89,9.16-34.14,2.08c-9.73-6.4-14.45-18.66-11.71-29.97
	C189.57,508.26,197.57,500.1,207.45,497.54L207.45,497.54z"/>
<path class="st111" d="M225.1,508.59l0.42,0.67c-3.8,4.12-5.36,10.49-7.66,15.59c-0.94,1.61-2.23,2.58-3.77,3.56
	c-6.33-0.14-12.22-2.29-18.56-2.01c-0.85-2.83,1.27-3.28,3.12-4.74c6.69-4.15,13.77-7.77,20.76-11.38
	C221.25,509.29,223.03,508.82,225.1,508.59L225.1,508.59z"/>
<path class="st1" d="M563.2,509.31c4.82-1.25,9.84-1.16,14.63,0.17c10.67,2.94,19.04,12.49,20.28,23.53
	c1.71,12.27-5.32,24.56-16.68,29.41c-10.61,4.7-23.58,2.12-31.55-6.31c-6.95-7.11-9.39-17.55-6.82-27.1
	C545.66,519.4,553.55,511.73,563.2,509.31L563.2,509.31z"/>
<path class="st112" d="M225.52,509.26c2.42,4.39,5.15,8.55,7.87,12.76c-0.53,0.97-1.06,1.94-1.58,2.92
	c-4.65,0.14-9.3,0.05-13.95-0.09C220.16,519.75,221.72,513.38,225.52,509.26L225.52,509.26z"/>
<path class="st113" d="M579.35,520.47c1.98,0.24,3.95,0.5,5.91,0.78c-0.07,1.02-0.15,2.05-0.25,3.07c-1.93,0.05-3.86,0.11-5.79,0.12
	l-0.72-0.03C578.78,523.09,579.07,521.78,579.35,520.47L579.35,520.47z"/>
<path class="st114" d="M233.39,522.02c0.32,1.6,1.24,3.82-0.61,4.77c-5.35,3.74-11.32,6.66-16.98,9.91
	c-3.42,1.8-6.89,4.21-10.65,5.2c-0.66-0.38-1.3-0.81-1.92-1.27c3.84-3.85,6.67-8.79,10.86-12.22c1.54-0.98,2.83-1.95,3.77-3.56
	c4.65,0.14,9.3,0.23,13.95,0.09C232.33,523.96,232.86,522.99,233.39,522.02L233.39,522.02z"/>
<path class="st115" d="M554.44,523.53c1.36-1.12,2.83-0.53,4.46-0.53c-0.15,1.64-0.31,3.28-0.5,4.92l-0.08,0.62
	c-1.49-0.41-3.07-0.74-4.48-1.38C553.44,525.79,552.96,524.4,554.44,523.53L554.44,523.53z"/>
<path class="st116" d="M579.22,524.44c1.93-0.01,3.86-0.07,5.79-0.12c-0.19,1.2-0.37,2.41-0.53,3.61l0.57,0.61
	c-1.04-0.01-2.08,0.01-3.12,0.04C581.04,527.19,580.14,525.81,579.22,524.44L579.22,524.44z"/>
<path class="st117" d="M214.09,528.41c-4.19,3.43-7.02,8.37-10.86,12.22c-2.65-4.69-5.19-9.47-7.7-14.23
	C201.87,526.12,207.76,528.27,214.09,528.41L214.09,528.41z"/>
<path class="st118" d="M558.32,528.54l0.08-0.62c3.69,1.44,10.24,2.61,11.06,7.24c-0.78,0.23-1.56,0.47-2.34,0.71
	c-0.84-1.29-1.87-2.34-3.01-3.37c0.17,2.18,0.51,4.36,0.56,6.54c-0.22,2.37-1.6,4.57-1.91,6.94c-0.23,1.9-0.22,3.81-0.47,5.7
	c-0.8,0.86-1.75,0.88-2.84,0.07c-0.46-3.69,0.26-7.17,0.24-10.74c-0.28-3.38-2.46-6.53-2.78-9.94
	C557.34,530.21,557.81,529.36,558.32,528.54L558.32,528.54z"/>
<path class="st119" d="M581.93,528.58c1.04-0.03,2.08-0.05,3.12-0.04l1.41,1.4c-0.1,2.34-0.19,4.67-0.29,7.01
	c-1.79-0.09-3.59-0.18-5.38-0.17l-0.15,0.04c-3.04,1.55-5.46,1.94-8.89,1.93c1.17-2.86,3.42-2.44,5.99-3.23
	C579.07,533.15,580.35,530.79,581.93,528.58L581.93,528.58z"/>
<path class="st120" d="M586.46,529.94c0.17,3.93,1.21,9.18-1.13,12.57c-0.34,3.03-0.39,6.12-0.94,9.12
	c-0.96,0.4-1.93,0.77-2.91,1.12c-0.72-5.3-0.85-10.63-0.69-15.97c1.79-0.01,3.59,0.08,5.38,0.17
	C586.27,534.61,586.36,532.28,586.46,529.94L586.46,529.94z"/>
<path class="st121" d="M569.46,535.16c0.32,1.23,0.51,2.5,0.7,3.75c-0.89,0.04-1.79,0.06-2.68,0.09c-0.12-1.04-0.24-2.09-0.36-3.13
	C567.9,535.63,568.68,535.39,569.46,535.16L569.46,535.16z"/>
<path class="st122" d="M54,1156.31c4.82-0.86,10.09-0.56,15-0.59c174.67,0.01,349.33,0,524,0c5.23,0.04,10.9-0.33,15.99,0.74
	c8.6,1.82,16.13,7.49,20.49,15.09c2.88,5.01,4.13,10.7,4.08,16.45c-0.05,11.01,0.08,22.03-0.05,33.04
	c-0.23,9.69-5.16,18.82-13.03,24.44c-5.39,3.91-11.85,5.82-18.48,5.84c-177.66-0.01-355.33-0.01-533,0
	c-6.46-0.05-12.59,0.5-18.83-1.57c-11.94-3.85-20.76-15.17-21.36-27.73c-0.29-8.99,0-18.01-0.11-27.01
	c0.02-6.15-0.38-11.83,1.56-17.78C33.68,1166.64,43.05,1158.34,54,1156.31L54,1156.31z"/>
<path class="st123" d="M69,1158.72c174.67,0,349.33,0,524,0c5.22,0.06,10.93-0.38,16.03,0.84c11.55,2.79,20.43,13.01,21.37,24.9
	c0.4,9.16,0.04,18.37,0.17,27.55c-0.04,4.61,0.26,9.51-0.7,13.98c-2.13,10.65-11.01,19.55-21.68,21.65
	c-5.2,1.01-10.89,0.63-16.19,0.68c-177-0.01-354,0-531,0c-6.4,0.02-12.62-1.67-17.78-5.53c-6.9-5.06-11.2-13.21-11.45-21.77
	c-0.17-8.33,0.02-16.68-0.06-25.01c0.03-5.15-0.33-10.54,0.8-15.56c2.08-8.93,8.7-16.54,17.28-19.8
	C56.01,1158.15,62.43,1158.79,69,1158.72L69,1158.72z"/>
<path class="st124" d="M407.47,1195.39c1.59-0.22,3.2-0.28,4.8-0.38c0.12,7.39,0.05,14.79,0.05,22.19
	c-1.56,0.01-3.11,0.03-4.67,0.04c-0.17-0.61-0.34-1.21-0.51-1.82c-3.24,2.19-6.48,3.17-9.49-0.05c-2.72-3.6-2.63-11.52,1.81-13.82
	c3.13-1.75,5.19,0.12,7.88,1.52C407.31,1200.52,407.21,1197.92,407.47,1195.39L407.47,1195.39z"/>
<path class="st125" d="M254.3,1197.72c1.74,1.17,2.53,3.54,3.45,5.34c-1.56,0.03-3.11,0.05-4.67,0.07c-1.93-1.51-3.21-3.4-5.95-2.88
	c-3.14,0.6-3.94,4.06-3.88,6.8c0.06,3,1.33,6.12,4.72,6.4c2.9,0.22,3.57-1.63,5.1-3.58c-1.43-0.18-2.87-0.36-4.31-0.53
	c0.02-1.17,0.04-2.35,0.06-3.52c2.97-0.01,5.94-0.02,8.91-0.03c-0.21,2.68,0,6.02-1.63,8.28c-3.79,5.53-14.01,4.81-16.88-1.3
	c-2.14-4.33-1.82-10.38,1.47-14.07C244.08,1195.14,250.37,1194.98,254.3,1197.72L254.3,1197.72z"/>
<path class="st126" d="M312.96,1197.01c2.13,1.08,2.69,3.3,3.75,5.27c-1.49,0.01-2.97,0.01-4.46-0.01c-1.75-1.15-2.87-2.76-5.2-2.19
	c-2.31,0.03-1.53,1.83-2.11,3.45c3.16,0.86,6.76,1.31,9.63,2.92c3.28,2.19,2.57,7.62-0.5,9.65c-3.18,2.18-8.24,2.23-11.59,0.43
	c-2.17-1.09-2.63-3.14-3.62-5.16c1.54-0.02,3.09-0.02,4.64-0.01c2.18,1.57,3.77,3.19,6.62,1.83c1.73-1.02,2.22-2.51,0-3.33
	c-2.6-1.03-5.82-1.3-8.21-2.74c-3.2-2.09-2.88-6.99-0.13-9.31C304.82,1195.38,309.58,1195.22,312.96,1197.01L312.96,1197.01z"/>
<path class="st127" d="M417.35,1196.54c1.76-0.16,3.53-0.16,5.29-0.19c-0.13,4.65-0.32,9.29-0.43,13.94
	c-1.49,0.04-2.97,0.07-4.46,0.11C417.55,1205.81,417.03,1201.13,417.35,1196.54L417.35,1196.54z"/>
<path class="st128" d="M280.91,1197.54c1.48-0.07,2.96-0.12,4.44-0.15c0.27,1.22,0.52,2.44,0.74,3.66c0.94,0.08,1.87,0.16,2.8,0.24
	c0,1.13-0.01,2.25-0.02,3.38c-1.02,0.12-2.04,0.24-3.06,0.35c-0.03,1.99-0.11,4.03,0.06,6.01c-0.03,2.11,1.4,2.02,2.85,2.98
	c0.08,1.1,0.15,2.21,0.22,3.31c-2.21-0.23-5.93,0.16-7.48-1.71c-1.18-2.83-0.38-6.56-0.87-9.61c-0.98-1.42-2.06-2.75-2.84-4.3
	c0.99-0.3,1.98-0.61,2.96-0.93C280.79,1199.69,280.85,1198.62,280.91,1197.54L280.91,1197.54z"/>
<path class="st129" d="M321.78,1197.51c1.71,0.02,3.43,0.02,5.14,0.06c-0.02,1.17-0.03,2.34-0.05,3.51
	c1.07,0.07,2.15,0.14,3.22,0.21c-0.04,1.13-0.07,2.26-0.11,3.38c-1.04,0.12-2.09,0.25-3.13,0.37c0,2.49-0.25,5.19,0.36,7.62
	c1.01,0.56,2.06,1.08,3.13,1.55c-0.21,0.92-0.44,1.84-0.68,2.75c-2.24,0.63-5.47,0.38-7.17-1.37c-1.19-2.83-0.36-6.53-0.92-9.56
	c-0.95-1.5-2.04-2.91-2.83-4.52c1.04-0.2,2.07-0.4,3.11-0.59C321.83,1199.78,321.81,1198.64,321.78,1197.51L321.78,1197.51z"/>
<path class="st130" d="M367.76,1197.42c1.43,0.02,2.86,0.05,4.29,0.1c0.01,1.2,0.02,2.4,0.02,3.6c1.05,0.02,2.09,0.04,3.14,0.05
	c-0.01,1.21-0.02,2.42-0.02,3.63c-1.05,0.08-2.09,0.16-3.14,0.24c0.01,2.63,0.03,5.25,0.07,7.87c1.04,0.29,2.08,0.58,3.12,0.86
	c-0.01,1.22-0.02,2.44-0.02,3.66c-2.39-0.36-6.41,0.16-7.78-2.29c-0.49-3.14-0.26-6.44-0.22-9.61c-1.1-0.45-2.2-0.91-3.29-1.36
	c0.68-1.57,1.36-2.7,2.64-3.85C366.96,1199.35,367.35,1198.38,367.76,1197.42L367.76,1197.42z"/>
<path class="st130" d="M273.97,1203.03c1.79,1.8,1.93,4.91,2.45,7.27c-3.89,0.04-7.77,0.02-11.66,0.14
	c0.92,1.23,1.36,3.61,3.28,3.32c2.74-0.5,5.4-1.27,8.2-1.51c-1.21,1.98-1.92,3.93-4.32,4.73c-3.16,1.1-7.61,0.77-9.86-2.01
	c-2.33-2.95-2.47-8.1-0.27-11.16C264.62,1199.96,270.63,1199.73,273.97,1203.03L273.97,1203.03z"/>
<path class="st126" d="M336.34,1201.41c3.15-1.27,8.98-0.93,10.39,2.77c0.91,4.18,0.37,8.75,0.44,13.02
	c-1.53,0.02-3.05,0.05-4.58,0.07c-0.17-0.55-0.35-1.1-0.55-1.65c-2.36,1.18-4.21,2.58-6.97,1.42c-3.22-1.37-4.06-5.96-1.02-8
	c2.24-1.19,5.2-1.09,7.64-1.79c1.59-1.2-0.34-2.88-1.62-2.47c-2.52,0.4-5.01,0.9-7.54,1.18
	C333.61,1204.04,334.01,1202.15,336.34,1201.41L336.34,1201.41z"/>
<path class="st131" d="M351.53,1201.28c3.71,0.07,7.23,0.39,10.91-0.43c0.02,1.39,0.04,2.78,0.07,4.16c-1.66,0.47-4.78,0-5.57,1.91
	c-0.72,3.34-0.29,7.02-0.39,10.43c-1.73-0.1-3.46-0.18-5.19-0.29C351.54,1211.81,351.21,1206.52,351.53,1201.28L351.53,1201.28z"/>
<path class="st124" d="M391.04,1202.95c2.03,1.9,2,4.82,2.53,7.36c-3.89,0.03-7.78,0.01-11.68,0.15c0.81,1.05,1.6,3.5,3.18,3.32
	c2.86-0.47,5.58-1.32,8.51-1.35c-1.39,1.88-2.26,3.84-4.64,4.61c-3.35,1.03-7.45,0.7-9.8-2.19c-2.16-2.84-2.19-7.24-0.61-10.35
	C381.05,1200.12,387.51,1199.49,391.04,1202.95L391.04,1202.95z"/>
<path class="st132" d="M268.14,1204.38c2.09-0.33,2.31,1.75,3.3,3.1c-2.2,0-4.39-0.03-6.58-0.11
	C265.79,1206.32,266.56,1204.33,268.14,1204.38L268.14,1204.38z"/>
<path class="st133" d="M384.48,1204.47c1.8-0.41,2.73,0.48,3.99,1.61c-0.36,2.48-4.74,1.03-6.51,1.33
	C382.77,1206.4,383.54,1205.38,384.48,1204.47L384.48,1204.47z"/>
<path class="st134" d="M403.22,1205.25c4.79-1.21,5.49,6.5,1.82,8.07C400.45,1214.31,399.76,1206.46,403.22,1205.25L403.22,1205.25z
	"/>
<path class="st135" d="M342.38,1210.08c-0.76,1.47-0.41,3.62-2.49,3.72c-2.19,0.07-3.06-0.11-2.66-2.56
	C338.86,1210.66,340.68,1210.39,342.38,1210.08L342.38,1210.08z"/>
<path class="st136" d="M422.74,1215.02c0.32,2.59-2.35,3.04-4.27,2.38c-1.75-0.58-1.07-2.79-1.36-4.22
	C419.15,1212.49,422.9,1211.67,422.74,1215.02L422.74,1215.02z"/>
</svg>
