<svg width="20" height="20" viewBox="0 0 86 86" fill="none" xmlns="http://www.w3.org/2000/svg">
<path fill-rule="evenodd" clip-rule="evenodd" d="M47.2129 23.7198C46.5555 23.3016 45.7914 23.0787 45.0129 23.0787H31.5342C30.2805 23.0787 29.0795 23.576 28.1925 24.4626C27.3061 25.3479 26.8086 26.5506 26.8086 27.8027C26.8086 34.4683 26.8086 48.3563 26.8086 55.0198C26.8086 56.2735 27.3061 57.4746 28.1925 58.3615C29.0795 59.247 30.2805 59.7454 31.5342 59.7454C37.2419 59.7454 48.0899 59.7454 53.7977 59.7454C55.0514 59.7454 56.2523 59.247 57.1394 58.3615C58.0258 57.4746 58.5233 56.2735 58.5233 55.0198C58.5233 55.0198 58.5233 38.5746 58.5233 33.1694C58.5233 31.7694 57.8071 30.4651 56.6274 29.7136L47.2129 23.7198Z" fill="#C0E0FF"/>
<path fill-rule="evenodd" clip-rule="evenodd" d="M35.3008 40.1028H50.0309C50.583 40.1028 51.0309 39.6548 51.0309 39.1028C51.0309 38.5506 50.583 38.1028 50.0309 38.1028H35.3008C34.7486 38.1028 34.3008 38.5506 34.3008 39.1028C34.3008 39.6548 34.7486 40.1028 35.3008 40.1028Z" fill="#499FF3"/>
<path fill-rule="evenodd" clip-rule="evenodd" d="M35.3008 50.0068H50.0309C50.583 50.0068 51.0309 49.5588 51.0309 49.0068C51.0309 48.4547 50.583 48.0068 50.0309 48.0068H35.3008C34.7486 48.0068 34.3008 48.4547 34.3008 49.0068C34.3008 49.5588 34.7486 50.0068 35.3008 50.0068Z" fill="#499FF3"/>
<path fill-rule="evenodd" clip-rule="evenodd" d="M44.9141 23.0786V27.7452C44.9141 28.9983 45.4131 30.1999 46.2979 31.0863C47.185 31.9718 48.3859 32.4692 49.6397 32.4692H58.4635C58.2689 31.3436 57.6089 30.3384 56.6277 29.7135L47.2131 23.7196C46.5558 23.3015 45.7917 23.0786 45.0131 23.0786H44.9141Z" fill="#499FF3"/>
<path fill-rule="evenodd" clip-rule="evenodd" d="M74.0732 54.0505C73.5055 53.8016 72.9148 53.5667 72.3482 53.3427C70.0867 52.4479 67.5132 53.3948 66.3706 55.5412C61.7175 64.1719 52.6482 69.6667 42.6654 69.6667C27.7638 69.6667 15.6654 57.5683 15.6654 42.6667C15.6654 40.3479 15.9638 38.0437 16.5508 35.8093C17.1815 33.4812 15.9586 31.0437 13.7091 30.1521C13.1732 29.9161 12.5867 29.6828 12.0133 29.4563C10.755 28.9573 9.344 29.0161 8.13047 29.6172C6.91744 30.2188 6.01744 31.3052 5.65182 32.6079C5.65078 32.6136 5.64922 32.6188 5.64818 32.6229C4.78411 35.8948 4.33203 39.2708 4.33203 42.6667C4.33203 63.824 21.508 81 42.6654 81C56.9492 81 69.9159 73.076 76.5107 60.6651C76.5123 60.664 76.5132 60.6615 76.5148 60.6588C77.1372 59.464 77.2242 58.0625 76.7534 56.8016C76.2851 55.5479 75.3132 54.5495 74.0732 54.0505Z" fill="#58D569"/>
<path fill-rule="evenodd" clip-rule="evenodd" d="M75.3601 49.3093C76.7054 49.5412 78.0841 49.188 79.1508 48.3374C80.2185 47.4864 80.8706 46.2213 80.945 44.8588C80.945 44.8573 80.945 44.8562 80.945 44.853C80.98 44.1254 81.0013 43.3958 81.0013 42.6666C81.0013 33.9197 78.0117 25.4828 72.5997 18.7188C72.5961 18.7136 72.592 18.7078 72.5877 18.7041C71.7362 17.6802 70.4934 17.0614 69.1628 17.0016C67.8398 16.9401 66.5518 17.436 65.6117 18.3682C65.1425 18.7786 64.68 19.2401 64.2388 19.6812C62.5092 21.412 62.3664 24.1693 63.9054 26.0693C67.633 30.7625 69.668 36.6104 69.668 42.6666C69.668 43.1317 69.656 43.5973 69.632 44.0625C69.632 44.064 69.632 44.064 69.632 44.065C69.5158 46.4745 71.2149 48.5921 73.5909 49L75.3601 49.3093Z" fill="#FA015C"/>
<path fill-rule="evenodd" clip-rule="evenodd" d="M61.6146 15.1745C62.3454 14.0427 62.5651 12.6547 62.2189 11.3521C61.8719 10.0495 60.9922 8.95467 59.7949 8.33601C59.7881 8.33174 59.7829 8.3292 59.7761 8.32653C54.4683 5.7188 48.6189 4.33334 42.6667 4.33334C31.0949 4.33334 20.2266 9.55307 12.9949 18.3959C12.9933 18.3973 12.9923 18.3984 12.9923 18.4C12.1428 19.4505 11.7803 20.812 11.9933 22.1453C12.2068 23.4745 12.972 24.6505 14.1017 25.3839C14.6017 25.7292 15.1293 26.0708 15.6361 26.3973C17.6746 27.7145 20.3771 27.2932 21.9189 25.4188C26.9949 19.2787 34.5881 15.6667 42.6667 15.6667C46.7694 15.6667 50.8027 16.6016 54.4667 18.3812C56.623 19.4625 59.2454 18.7531 60.5626 16.736C60.9241 16.2427 61.2735 15.7016 61.6146 15.1745Z" fill="#00A1FF"/>
</svg>
